<svg height="1194" width="1509" xmlns="http://www.w3.org/2000/svg">
 <!-- Created with Image Occlusion Enhanced -->
 <g>
  <title>Labels</title>
 </g>
 <g>
  <title>Masks</title>
  <rect fill="#FFEBA2" height="147.14286" id="3efad90d456742cb90056c92b0c13663-oa-1" stroke="#2D2D2D" width="182.85715" x="6.71417" y="238.85716"/>
  <rect fill="#FFEBA2" height="57.14286" id="3efad90d456742cb90056c92b0c13663-oa-2" stroke="#2D2D2D" width="162.85715" x="172.42846" y="153.14288"/>
  <rect fill="#FFEBA2" height="84.28572" id="3efad90d456742cb90056c92b0c13663-oa-3" stroke="#2D2D2D" width="162.85715" x="32.42846" y="586.00003"/>
  <rect fill="#FFEBA2" height="52.85714" id="3efad90d456742cb90056c92b0c13663-oa-4" stroke="#2D2D2D" width="90" x="352.42846" y="816.00003"/>
  <rect fill="#FFEBA2" height="87.14286" id="3efad90d456742cb90056c92b0c13663-oa-5" stroke="#2D2D2D" width="141.42857" x="700.99989" y="818.85717"/>
  <rect fill="#FFEBA2" height="48.57143" id="3efad90d456742cb90056c92b0c13663-oa-6" stroke="#2D2D2D" width="175.71429" x="976.71418" y="223.14288"/>
  <rect fill="#FFEBA2" height="137.14286" id="3efad90d456742cb90056c92b0c13663-oa-7" stroke="#2D2D2D" width="164.28572" x="1299.57133" y="408.85717"/>
  <rect fill="#FFEBA2" height="58.57143" id="3efad90d456742cb90056c92b0c13663-oa-8" stroke="#2D2D2D" width="95.71429" x="1055.28561" y="841.71432"/>
  <rect fill="#FFEBA2" height="45.71429" id="3efad90d456742cb90056c92b0c13663-oa-9" stroke="#2D2D2D" width="98.57143" x="1063.85704" y="943.14289"/>
  <rect fill="#FFEBA2" height="141.42857" id="3efad90d456742cb90056c92b0c13663-oa-10" stroke="#2D2D2D" width="242.85715" x="595.28561" y="647.4286"/>
  <rect fill="#FFEBA2" height="100" id="3efad90d456742cb90056c92b0c13663-oa-11" stroke="#2D2D2D" width="137.14286" x="822.42847" y="250.28574"/>
  <rect fill="#FFEBA2" height="134.28572" id="3efad90d456742cb90056c92b0c13663-oa-12" stroke="#2D2D2D" width="427.14286" x="1045.28561" y="540.28574"/>
  <rect fill="#FFEBA2" height="98.57143" id="3efad90d456742cb90056c92b0c13663-oa-13" stroke="#2D2D2D" width="185.71429" x="353.85703" y="908.85717"/>
  <rect fill="#FFEBA2" height="47.14286" id="3efad90d456742cb90056c92b0c13663-oa-14" stroke="#2D2D2D" width="98.57143" x="383.85703" y="568.85717"/>
  <rect fill="#FFEBA2" height="44.28571" id="3efad90d456742cb90056c92b0c13663-oa-15" stroke="#2D2D2D" width="115.71429" x="668.14275" y="237.42859"/>
  <rect fill="#FFEBA2" height="54.28572" id="3efad90d456742cb90056c92b0c13663-oa-16" stroke="#2D2D2D" width="91.42857" x="656.71418" y="566.00003"/>
  <rect fill="#FFEBA2" height="104.28572" id="3efad90d456742cb90056c92b0c13663-oa-17" stroke="#2D2D2D" width="194.28572" x="1310.9999" y="716.00003"/>
 </g>
</svg>