<svg height="652" width="1245" xmlns="http://www.w3.org/2000/svg">
 <!-- Created with Image Occlusion Enhanced -->
 <g>
  <title>Labels</title>
 </g>
 <g>
  <title>Masks</title>
  <rect fill="#FFEBA2" height="33.33333" id="70cc265b670a475888272cec75c99fc1-ao-1" stroke="#2D2D2D" width="173.6842" x="11.14031" y="42.73681"/>
  <rect fill="#FFEBA2" height="33.33333" id="70cc265b670a475888272cec75c99fc1-ao-2" stroke="#2D2D2D" width="173.6842" x="14.64908" y="130.45611"/>
  <rect fill="#FFEBA2" height="33.33333" id="70cc265b670a475888272cec75c99fc1-ao-3" stroke="#2D2D2D" width="196.49121" x="14.64908" y="291.85962"/>
  <rect fill="#FFEBA2" height="33.33333" id="70cc265b670a475888272cec75c99fc1-ao-4" stroke="#2D2D2D" width="196.49121" x="11.14031" y="356.7719"/>
  <rect fill="#FFEBA2" height="33.33333" id="70cc265b670a475888272cec75c99fc1-ao-5" stroke="#2D2D2D" width="196.49121" x="14.64908" y="514.66663"/>
  <rect fill="#FFEBA2" height="33.33333" id="70cc265b670a475888272cec75c99fc1-ao-6" stroke="#2D2D2D" width="196.49121" x="12.89469" y="614.66662"/>
  <rect fill="#FFEBA2" height="33.33333" id="70cc265b670a475888272cec75c99fc1-ao-7" stroke="#2D2D2D" width="228.07016" x="839.21044" y="612.91224"/>
  <rect fill="#FFEBA2" height="33.33333" id="70cc265b670a475888272cec75c99fc1-ao-8" stroke="#2D2D2D" width="171.92981" x="1060.26306" y="337.47365"/>
  <rect class="qshape" fill="#FF7E7E" height="33.33333" id="70cc265b670a475888272cec75c99fc1-ao-9" stroke="#2D2D2D" width="171.92981" x="854.9999" y="28.70172"/>
  <rect fill="#FFEBA2" height="33.33333" id="70cc265b670a475888272cec75c99fc1-ao-10" stroke="#2D2D2D" width="171.92981" x="1056.75427" y="477.8245"/>
  <rect fill="#FFEBA2" height="57.89474" id="70cc265b670a475888272cec75c99fc1-ao-11" stroke="#2D2D2D" width="271.92982" x="11.14033" y="207.64908"/>
  <rect fill="#FFEBA2" height="57.89474" id="70cc265b670a475888272cec75c99fc1-ao-12" stroke="#2D2D2D" width="196.49122" x="512.89469" y="2.38593"/>
  <rect fill="#FFEBA2" height="57.89474" id="70cc265b670a475888272cec75c99fc1-ao-13" stroke="#2D2D2D" width="196.49122" x="1037.45607" y="109.40347"/>
  <rect fill="#FFEBA2" height="89.47368" id="70cc265b670a475888272cec75c99fc1-ao-14" stroke="#2D2D2D" width="196.49122" x="1046.228" y="191.85961"/>
  <rect fill="#FFEBA2" height="56.14035" id="70cc265b670a475888272cec75c99fc1-ao-15" stroke="#2D2D2D" width="171.92981" x="1054.99989" y="412.91222"/>
 </g>
</svg>